<?xml version="1.0" standalone="no"?>
<!DOCTYPE svg PUBLIC "-//W3C//DTD SVG 20010904//EN"
 "http://www.w3.org/TR/2001/REC-SVG-20010904/DTD/svg10.dtd">
<svg version="1.0" xmlns="http://www.w3.org/2000/svg"
 width="700.000000pt" height="700.000000pt" viewBox="0 0 700.000000 700.000000"
 preserveAspectRatio="xMidYMid meet">
<metadata>
Created by potrace 1.14, written by Peter Selinger 2001-2017
</metadata>
<g transform="translate(0.000000,700.000000) scale(0.100000,-0.100000)"
fill="#000000" stroke="none">
<path d="M3835 6665 c-140 -26 -857 -274 -990 -343 -198 -102 -404 -291 -541
-497 -165 -248 -269 -535 -331 -913 -15 -95 -15 -104 0 -119 14 -15 18 -15 39
0 66 46 67 48 83 156 45 302 168 627 315 833 135 190 320 344 505 421 103 43
775 258 855 273 85 17 261 20 335 5 110 -21 211 -66 311 -137 263 -186 454
-631 454 -1054 0 -234 -36 -439 -122 -690 -97 -284 -199 -457 -367 -627 -120
-120 -234 -200 -385 -267 -205 -91 -268 -105 -469 -106 -91 0 -119 -3 -123
-14 -4 -12 39 -192 48 -202 2 -1 61 -6 131 -10 l127 -7 45 -45 c75 -74 149
-259 192 -477 21 -108 23 -341 4 -460 -16 -105 -82 -302 -130 -390 -69 -128
-134 -151 -331 -121 -172 27 -163 23 -156 59 39 210 59 497 50 722 l-7 161
-161 -1 c-127 0 -176 4 -231 19 -38 10 -75 23 -82 28 -9 7 -13 87 -15 286 l-3
277 -37 77 c-61 129 -161 218 -291 261 -89 29 -295 29 -384 0 -130 -43 -230
-132 -291 -261 l-37 -77 -3 -282 c-3 -255 -5 -282 -20 -287 -65 -19 -169 -28
-308 -28 l-161 1 -6 -112 c-6 -126 6 -425 23 -562 64 -532 243 -969 513 -1252
51 -53 128 -123 171 -155 70 -52 244 -146 301 -162 14 -4 59 13 130 48 l108
53 59 -24 c81 -32 899 -299 991 -323 130 -33 232 -43 371 -37 291 12 520 116
736 335 293 297 472 742 552 1372 20 159 17 559 -5 685 -99 560 -248 952 -477
1250 -33 44 -60 85 -60 91 0 7 21 48 47 91 69 116 119 229 178 403 87 258 123
448 132 702 7 195 -4 293 -52 484 -92 360 -262 643 -482 800 -74 54 -205 116
-293 139 -91 24 -347 29 -455 10z m815 -2932 c124 -185 263 -537 319 -808 54
-265 69 -451 52 -679 -62 -850 -417 -1446 -940 -1583 -111 -29 -301 -36 -406
-14 -55 11 -825 230 -834 237 -2 2 20 29 48 60 28 31 72 85 97 120 32 45 51
63 63 60 155 -45 588 -148 654 -155 478 -54 824 300 965 989 49 239 57 311 57
530 0 165 -5 229 -22 330 -41 233 -111 443 -229 688 -35 72 -64 138 -64 146 0
19 151 156 172 156 10 0 38 -32 68 -77z m-2164 -188 c63 -19 126 -72 156 -133
21 -44 23 -61 26 -251 l4 -204 -59 33 c-32 18 -102 61 -156 96 -55 36 -103 61
-110 57 -7 -3 -34 -25 -62 -49 -56 -47 -202 -144 -217 -144 -6 0 -8 79 -6 208
3 193 5 210 26 254 29 59 92 114 152 133 60 18 184 19 246 0z m1716 -42 c34
-39 119 -214 152 -313 69 -212 116 -471 116 -648 0 -276 -72 -619 -179 -847
-140 -300 -355 -451 -611 -431 -59 4 -287 51 -497 101 l-22 5 23 53 c13 28 36
89 51 135 25 74 31 83 49 78 28 -7 280 -53 332 -61 56 -9 147 9 213 41 193 95
328 393 367 814 14 150 14 178 0 305 -27 234 -86 437 -176 601 -25 46 -36 75
-30 84 7 11 170 96 191 99 3 1 13 -7 21 -16z m-1767 -673 c215 -131 464 -224
663 -245 l62 -7 0 -76 c0 -336 -73 -726 -185 -991 -126 -299 -336 -545 -564
-660 -53 -27 -66 -23 -191 60 -311 208 -532 632 -610 1169 -19 132 -40 377
-40 473 l0 47 53 0 c200 0 495 98 677 224 36 25 66 45 67 45 2 1 32 -17 68
-39z"/>
<path d="M2805 2450 c-89 -7 -125 -22 -171 -72 -63 -67 -311 -386 -377 -485
l-68 -101 -52 49 c-29 28 -86 67 -126 87 -66 33 -84 37 -149 37 -71 0 -75 -1
-103 -33 -17 -19 -29 -37 -27 -41 2 -5 37 -36 79 -69 124 -100 241 -251 331
-427 29 -58 55 -105 58 -105 3 0 22 33 42 73 157 305 435 719 656 977 59 69
86 107 79 112 -13 9 -53 8 -172 -2z"/>
<path d="M3715 6275 c-92 -21 -742 -222 -814 -252 -92 -38 -202 -113 -279
-191 -189 -188 -344 -537 -387 -871 l-7 -54 53 7 c78 11 85 17 92 83 15 142
109 419 187 554 85 144 197 251 325 309 101 46 794 241 880 247 341 26 563
-259 628 -807 7 -59 -12 -245 -38 -374 -68 -337 -224 -600 -453 -763 -93 -67
-148 -80 -405 -98 l-222 -16 -47 -52 c-27 -28 -48 -57 -48 -64 0 -7 19 -34 42
-59 l42 -45 125 6 c402 20 435 27 610 136 173 107 294 243 409 459 93 174 149
350 188 590 45 281 22 484 -90 782 -93 247 -263 421 -462 473 -72 18 -245 18
-329 0z"/>
<path d="M3312 5806 c-392 -107 -415 -115 -481 -164 -151 -115 -257 -330 -302
-614 -14 -89 -3 -118 51 -136 26 -9 34 -8 55 11 21 19 27 39 40 128 19 132 47
232 89 324 41 89 81 135 143 163 26 12 206 61 398 108 470 115 478 114 560
-51 55 -111 87 -249 88 -375 1 -134 -15 -225 -66 -375 -72 -216 -106 -274
-171 -294 -17 -6 -76 -15 -131 -21 -55 -7 -103 -15 -106 -18 -10 -11 -59 -165
-59 -185 0 -21 -1 -21 172 -2 168 18 206 34 289 123 75 80 120 148 164 253
102 236 136 461 105 674 -21 136 -74 303 -120 376 -38 58 -94 110 -152 140
-33 18 -63 23 -133 26 -86 2 -103 -1 -433 -91z"/>
</g>
</svg>
