<?xml version="1.0" encoding="UTF-8"?>
<svg width="792" height="598" viewBox="0 0 792 598" xmlns="http://www.w3.org/2000/svg" xmlns:xlink="http://www.w3.org/1999/xlink">
    <path id="a7c5c542-e960-402d-86b7-e161a3e2924b-2149" fill="#ffb7b7" stroke="none" d="M 516.399048 244.896484 C 512.895813 245.401917 509.348633 244.330414 506.711182 241.970001 C 504.073669 239.609619 502.616638 236.202606 502.731689 232.665009 L 463.05426 217.417206 L 481.01947 204.566315 L 515.943359 221.015991 C 522.00824 221.617615 526.664185 226.66098 526.780151 232.754486 C 526.896057 238.847992 522.435364 244.06488 516.397827 244.89679 Z"/>
    <path id="b1c26e50-8516-4a28-8986-b88082ea0766-2150" fill="#e6e7e8" stroke="none" d="M 493.725952 233.958008 L 499.921204 212.105377 L 499.616333 211.897705 L 441.586304 172.477844 L 391.422974 122.144653 L 362.201965 133.819427 L 364.120728 143.068207 L 364.246094 143.181702 L 430.940857 202.919464 L 431.002563 202.949463 Z"/>
    <path id="Path" fill="#ffb6b6" stroke="none" d="M 434.278015 283.872711 L 344.468994 271.283691 L 352.373993 216.176697 L 418.492004 216.176697 L 434.278015 283.872711 Z"/>
    <path id="path1" fill="#ffb6b6" stroke="none" d="M 281.678986 553.716675 L 300.10199 557.997681 L 325.381012 488.976685 L 298.191986 482.658691 L 281.678986 553.716675 Z"/>
    <path id="path2" fill="#2f2e41" stroke="none" d="M 264.53775 583.376709 L 277.749176 586.446838 L 283.00589 574.521606 L 286.147003 588.398376 L 321.187134 596.541199 C 324.63446 597.342529 328.202332 595.80896 329.993103 592.756165 C 331.783875 589.703369 331.381287 585.84082 328.999573 583.222839 L 305.508606 557.394958 L 308.438965 544.784973 L 278.598633 539.702087 Z"/>
    <path id="path3" fill="#ffb6b6" stroke="none" d="M 395.35199 563.982666 L 414.265015 563.982666 L 423.265991 491.030701 L 395.35199 491.030701 L 395.35199 563.982666 Z"/>
    <path id="path4" fill="#2f2e41" stroke="none" d="M 385.369141 596.752991 L 398.932617 596.752991 L 401.353577 583.947388 L 407.55426 596.752991 L 443.528076 596.752991 C 447.067322 596.753235 450.195496 594.451843 451.248779 591.072937 C 452.302002 587.694031 451.035583 584.022766 448.123047 582.011902 L 419.395508 562.171692 L 419.395508 549.225647 L 389.179077 551.029114 Z"/>
    <path id="path5" fill="#2f2e41" stroke="none" d="M 343.333862 261.933228 L 431.162842 254.946808 C 457.080383 315.489075 440.600708 412.138062 420.683289 520.936768 L 392.433655 524.589355 L 390.242554 349.762177 L 319.425354 512.403625 L 289.982697 510.898682 Z"/>
    <path id="be563295-45cb-4583-a2cc-1b51a6e0af2d-2151" fill="#2f2e41" stroke="none" d="M 394.457825 102.507996 L 394.457825 72.794189 C 394.464966 58.564575 386.877625 45.412842 374.555664 38.295959 C 362.233643 31.179077 347.050232 31.179077 334.72821 38.295959 C 322.406189 45.412842 314.818848 58.564575 314.825989 72.794189 C 307.808502 87.417542 312.19873 94.369995 314.825989 102.507996 C 314.830933 105.458466 317.221558 107.84906 320.172058 107.853973 L 389.109192 107.853973 C 392.060669 107.850464 394.452881 105.459473 394.457825 102.507996 Z"/>
    <path id="e6de18e8-d8d7-4938-bc85-74b57e27a471" fill="#ffb7b7" stroke="none" d="M 393.659698 78.213989 C 393.659698 94.336273 380.590027 107.405945 364.467773 107.405945 C 348.34552 107.405945 335.275818 94.336273 335.275818 78.213989 C 335.275818 62.091736 348.34552 49.022095 364.467773 49.022095 C 380.590027 49.022095 393.659698 62.091736 393.659698 78.213989 Z"/>
    <path id="b4d76e12-782b-49dd-9dc2-b18e04e0f0ec-2152" fill="#2f2e41" stroke="none" d="M 403.877014 75.170532 C 403.857361 57.783997 389.767639 43.694336 372.381104 43.674744 L 366.43811 43.674744 C 349.051575 43.694336 334.961853 57.783997 334.942261 75.170532 L 334.942261 75.765076 C 339.39325 78.807861 343.618469 79.252869 347.501648 75.765076 L 351.78479 63.770752 L 352.641418 75.765015 L 359.133118 75.765015 L 361.296997 69.713806 L 361.729797 75.765076 C 370.497803 83.2323 387.077698 79.65387 403.877075 75.765076 Z"/>
    <path id="a580674d-06d2-46e1-9b07-6683bd33a718-2153" fill="#e6e7e8" stroke="none" d="M 347.445618 232.283173 L 421.770874 229.454865 L 425.925476 180.831329 C 429.129333 171.931427 429.181458 164.284058 426.079468 158.118317 C 423.411377 153.050201 418.928772 149.175812 413.52771 147.269653 L 397.264282 127.62677 C 393.027771 122.514374 386.720093 119.573608 380.080566 119.615326 L 337.82135 119.904266 C 336.803101 119.292023 330.624573 116.151855 318.439453 121.431702 C 305.223267 127.159607 308.292175 147.059631 308.325256 147.25946 L 308.355774 147.446564 L 308.500916 147.573853 L 336.608398 171.249207 Z"/>
    <path id="path6" fill="#3f3d56" stroke="none" d="M 544.625854 302.858521 C 544.510559 361.56958 499.622314 410.494263 441.138123 415.652161 C 382.653992 420.809998 329.89563 380.497009 319.506226 322.712402 C 309.116882 264.927795 344.528809 208.762207 401.146912 193.22525 C 457.764954 177.688324 516.88385 207.913055 537.44281 262.906982 C 537.690186 263.573242 537.931396 264.239441 538.166138 264.91214 L 538.166138 264.918488 C 539.213196 267.875488 540.135437 270.887512 540.9328 273.954559 C 543.3927 283.392059 544.63385 293.105713 544.625854 302.858521 Z"/>
    <path id="path7" fill="#f50004" stroke="none" d="M 417.909546 225.795837 C 407.507935 220.170929 395.092041 219.662964 384.265686 224.419373 C 379.561646 226.466583 374.608459 230.139008 373.039246 236.770752 C 379.385986 233.025146 387.601624 238.943176 389.234741 248.43689 L 388.853577 248.542053 C 387.990967 255.117767 389.916565 262.277039 393.644653 266.354431 C 394.205994 262.628601 396.414429 259.353271 399.65802 257.436005 C 402.397156 255.635437 405.427307 254.327423 407.518005 251.232422 C 409.996521 247.563202 410.625916 242.200745 411.610535 237.308807 C 412.595154 232.416901 414.462952 227.158936 417.909546 225.795837 Z"/>
    <path id="path8" fill="#f50004" stroke="none" d="M 382.382996 281.753204 C 380.625244 284.392975 378.277466 286.049225 376.170776 288.111511 C 373.738708 290.323761 372.143127 293.306458 371.652771 296.557373 C 371.38623 298.854492 371.798645 301.189575 371.741516 303.512115 C 371.684509 305.834534 370.910217 308.448883 369.330261 309.026337 C 366.836426 309.927338 364.932739 305.295166 362.369263 304.971527 C 360.332275 304.717712 358.498474 307.922241 359.088562 310.701599 C 359.67865 313.480927 362.451721 314.711914 364.044434 312.897125 C 365.484863 315.314728 364.469543 319.699615 362.305725 320.441956 C 362.077271 321.964874 361.848877 323.481506 361.62677 325.004425 C 356.15686 321.17804 350.629944 317.2883 345.978699 311.68512 C 340.805664 305.506317 337.597168 297.922546 336.764954 289.907257 C 336.162109 283.466522 337.056824 276.099335 334.099915 271.143524 C 331.73291 267.177551 327.671753 266.301819 324.016724 266.549347 C 323.350464 266.593689 322.677917 266.669861 322.011536 266.75235 C 324.167053 260.27832 326.904724 254.012939 330.190918 248.032959 C 330.93457 247.713745 331.62561 247.283661 332.240479 246.757416 C 335.641724 243.87027 337.152039 238.02597 339.912231 233.983856 C 340.089966 233.723663 340.273987 233.469849 340.464294 233.222443 C 343.288147 229.535614 347.070068 227.638306 350.725037 225.874237 C 358.815674 221.946381 367.140869 217.967743 375.682068 218.513428 L 373.251709 218.748199 C 370.415283 226.69281 367.576691 234.637451 364.735962 242.582123 C 364.304413 243.800415 363.868683 245.020874 363.428833 246.2435 C 361.817017 250.761505 360.15448 255.571442 360.402039 260.628845 C 360.548035 263.623871 361.588562 266.822144 363.56842 267.850067 C 365.414978 268.80191 367.432861 267.634308 369.215881 266.479431 C 369.971008 265.997192 370.719849 265.514862 371.474915 265.026245 C 374.184448 263.28125 377.185913 261.491791 380.047791 262.659332 C 382.668457 263.725342 384.603821 267.285278 384.971863 271.124329 C 385.309387 274.856201 384.398865 278.594574 382.382996 281.753204 Z"/>
    <path id="path9" fill="#f50004" stroke="none" d="M 398.498047 335.993103 C 390.584503 331.120636 382.67099 326.248199 374.757446 321.375793 L 374.891724 321.029816 C 369.971497 322.903809 367.928711 331.649872 368.741882 338.802246 C 369.555054 345.95462 372.312195 352.34845 373.705078 359.317505 C 375.583252 368.854553 374.87439 378.720459 371.6521 387.890991 C 382.057861 376.215027 391.266907 363.52533 399.141052 350.012115 C 400.241028 348.30899 401.079224 346.45047 401.627625 344.498566 C 402.208435 342.418427 402.001465 340.197113 401.046204 338.260162 C 400.398438 337.304413 399.522644 336.525238 398.498047 335.993103 Z"/>
    <path id="path10" fill="#f50004" stroke="none" d="M 367.266113 247.348846 C 366.336853 249.344116 366.193665 251.616272 366.865112 253.712402 C 367.645935 255.401184 369.062378 256.713074 370.805969 257.362396 L 375.178528 259.529755 C 376.633179 260.250824 378.201172 260.979065 379.684082 260.385834 C 381.472656 259.670319 382.712769 256.866241 382.392029 254.263092 C 382.050537 251.49295 380.304443 249.587524 378.689575 247.964874 C 376.429657 245.694122 374.169739 243.42337 371.909851 241.152618 L 370.63623 242.712555 C 369.258667 244.056244 368.119141 245.623901 367.266113 247.348846 Z"/>
    <path id="path11" fill="#f50004" stroke="none" d="M 521.185425 276.962341 C 523.152649 277.425568 525.119751 277.888763 527.086853 278.351959 C 526.744141 284.995789 523.450867 291.144653 519.034363 293.371887 C 517.194153 294.298401 515.144531 294.640991 513.621582 296.373383 C 512.244629 297.947083 511.54657 300.396393 510.90564 302.737854 C 509.782501 306.824432 508.659332 310.91095 507.536133 314.997406 C 506.330566 319.401215 504.782227 324.293732 501.647522 325.880096 C 498.957031 327.244293 495.879395 325.575409 493.810791 322.7771 C 491.742126 319.97879 490.479431 316.215851 489.2547 312.548157 C 489.330811 316.545837 487.47168 320.467407 484.838196 321.856995 C 482.198425 323.246613 478.987549 321.990234 477.223572 318.88736 C 475.954468 316.660034 475.427795 313.721985 474.184021 311.463013 C 472.940308 309.20401 470.332336 307.909546 468.974365 310.028931 C 468.07959 311.437714 468.193787 313.595123 467.749573 315.384583 C 467.291199 317.819794 465.340088 319.697083 462.888977 320.061249 C 460.666809 320.010315 458.56311 319.049042 457.070129 317.402405 C 453.184265 313.427521 450.654541 308.325867 449.842529 302.826752 C 449.292053 300.190216 449.361572 297.461823 450.045654 294.85675 C 450.826111 292.388428 452.710693 290.484833 454.582642 290.954285 C 455.81366 288.352509 453.383423 284.900604 451.194153 285.2052 C 448.998535 285.509796 447.278931 287.863983 445.476868 289.672455 C 443.681091 291.480927 441.168274 292.794464 439.359741 290.998627 C 439.443909 292.366425 438.403381 293.543518 437.035522 293.627747 C 436.970581 293.631744 436.905609 293.633209 436.840576 293.63208 C 435.638 293.286865 434.520691 292.694702 433.559937 291.893402 C 429.416321 289.310699 424.155762 291.024078 421.211487 295.910065 C 423.051758 288.079681 425.748474 279.094391 431.402344 277.25415 C 433.71228 276.499054 436.231445 277.120911 438.414246 275.81369 C 442.278748 273.497681 443.059265 264.74707 439.721436 261.136536 C 440.146545 264.550385 440.064148 268.5354 438.261963 270.870605 C 436.459839 273.205841 432.677917 271.68277 432.906372 268.230865 C 432.801147 269.226868 432.066772 270.041931 431.087036 270.25 C 430.107361 270.458038 429.105103 270.011841 428.604126 269.144592 C 427.404846 267.317169 427.506409 264.3284 428.356689 262.145508 C 429.233276 260.168457 430.490295 258.383179 432.056091 256.891418 C 435.070251 253.661591 438.128784 250.393616 441.618896 248.362976 C 445.115295 246.332428 449.151062 245.647156 452.653809 247.665039 C 454.500488 248.731049 456.124878 250.507843 458.00946 251.44693 C 458.903809 252.001923 459.982056 252.178864 461.006958 251.938843 C 462.031799 251.698822 462.919373 251.061493 463.474304 250.167084 C 463.495544 250.132904 463.516266 250.098389 463.536438 250.063538 C 464.938782 247.601471 464.278809 243.946442 464.799194 240.868896 C 465.731934 235.430817 471.170044 232.88623 474.184204 236.477783 C 471.93158 235.90036 469.602722 238.56546 469.323486 241.79541 C 469.038025 245.025269 470.668823 248.286896 472.851624 249.26413 C 476.519409 250.888519 480.110901 246.801971 482.883972 243.02005 C 485.777435 239.060425 488.675232 235.102936 491.577332 231.147583 C 492.04071 230.474091 492.560791 229.841461 493.131897 229.256592 C 495.018005 227.418152 498.006531 227.357117 499.966064 229.117004 C 502.897705 231.509216 504.274719 236.414398 506.679749 239.790161 C 510.169739 244.695251 515.392151 245.888214 520.252747 246.840057 C 523.875977 247.544434 527.501465 248.253021 531.129089 248.96579 C 533.54718 253.464447 535.656616 258.122253 537.442871 262.907013 C 530.79071 265.940338 525.148315 270.81842 521.185425 276.962341 Z"/>
    <path id="path12" fill="#f50004" stroke="none" d="M 540.9328 273.954559 C 540.189453 276.145874 539.782959 278.437286 539.727173 280.75058 C 536.617798 276.955933 536.122803 269.842651 538.166138 264.918457 C 539.213196 267.875488 540.135437 270.887512 540.9328 273.954559 Z"/>
    <path id="path13" fill="#f50004" stroke="none" d="M 532.899353 353.311981 C 530.180725 358.832123 527.018738 364.12262 523.444458 369.131348 C 521.160095 368.154114 518.704407 369.899109 516.565918 371.536316 C 514.332214 373.249573 511.648071 374.918457 509.357361 373.357422 C 507.01593 371.758362 506.260742 367.28479 507.003174 363.737549 C 507.856506 360.465363 509.348816 357.394379 511.394287 354.701508 C 513.297974 351.858704 515.334778 348.90802 517.980957 347.803894 C 520.633423 346.699799 524.040955 348.260773 524.815125 352.03009 L 526.69342 351.966583 C 525.640015 350.519836 526.192139 347.524719 527.607239 346.998047 C 529.237976 346.382568 530.653137 348.622437 531.617554 350.602356 C 532.049072 351.49704 532.486816 352.398193 532.899353 353.311981 Z"/>
    <path id="path14" fill="#f50004" stroke="none" d="M 460.962646 326.50885 C 456.925354 326.762726 453.727417 321.792664 451.602417 316.903259 C 449.477417 312.013824 447.538391 306.422394 443.895569 303.933685 C 441.814148 302.511597 439.441101 302.316528 437.183411 301.62735 C 434.585388 300.971191 432.463135 299.102692 431.483215 296.608704 L 428.92218 295.574188 C 425.339844 297.364899 422.059204 299.704102 419.198792 302.507263 C 415.930115 305.979401 413.894226 310.430298 413.404968 315.173767 C 412.91571 320.299896 414.722229 326.015839 418.097778 327.941467 C 420.764954 329.463074 423.8703 328.503998 426.571899 329.896942 C 429.947449 331.637238 431.951416 336.692841 432.710022 341.68457 C 433.468628 346.67627 433.276367 351.8638 433.819092 356.91217 C 434.361877 361.96051 435.857605 367.213501 438.953186 369.800598 C 442.826904 373.038025 448.511108 370.347839 450.249084 364.45459 C 451.101501 361.563843 451.072205 358.301971 451.709839 355.3013 C 452.832703 350.016907 455.862671 346.096283 458.26593 341.761536 C 460.669128 337.426788 462.560974 331.539551 460.962646 326.50885 Z"/>
    <path id="path15" fill="#f50004" stroke="none" d="M 421.068665 274.582336 C 421.44519 274.928925 421.796509 275.30191 422.119995 275.698456 C 422.802368 276.874908 422.777527 278.332428 422.055481 279.484955 C 423.038635 279.428986 423.953491 278.963989 424.578247 278.202759 C 425.315063 277.363556 425.963257 276.45047 426.512451 275.478058 C 427.034912 274.804382 427.242676 273.93869 427.082825 273.101288 C 426.89209 272.556976 426.441101 272.324829 426.124939 271.915466 C 425.686646 271.115112 425.387451 270.246124 425.240173 269.345581 C 424.882568 267.623993 423.581665 266.252991 421.881165 265.805664 L 422.083496 265.84436 C 421.37738 266.263336 421.016052 267.085114 421.184509 267.888672 C 421.307068 268.680511 421.815918 269.337921 421.765259 270.145538 C 421.692444 271.306854 420.53186 271.851807 420.460144 273.013275 C 420.448914 273.595947 420.66748 274.159607 421.068665 274.582336 Z"/>
    <path id="path16" fill="#f50004" stroke="none" d="M 414.15155 254.847534 L 414.169495 254.844025 C 414.293701 254.730835 414.408875 254.608154 414.513977 254.477112 Z"/>
    <path id="path17" fill="#f50004" stroke="none" d="M 415.362305 260.298615 C 416.35083 259.431244 416.773499 258.085236 416.458313 256.808441 C 416.165039 255.487976 415.127014 254.600159 414.169556 254.844025 C 413.604919 255.416504 412.785278 255.657806 412.000488 255.482635 C 411.408569 255.330231 410.758667 254.937775 410.2453 255.383789 C 409.951599 255.716858 409.746033 256.118225 409.6474 256.551178 C 409.457428 257.134552 409.267365 257.717834 409.077271 258.301056 C 408.987061 258.509888 408.963562 258.741486 409.009888 258.964203 C 409.083923 259.145691 409.247192 259.275513 409.440735 259.306702 C 410.580902 259.642822 411.721039 259.978912 412.861084 260.315002 C 413.655884 260.681213 414.572388 260.675201 415.362305 260.298615 Z"/>
    <path id="path18" fill="#f50004" stroke="none" d="M 501.434326 335.556152 C 500.907318 334.693268 500.38028 333.830414 499.85321 332.96756 C 499.335571 331.968292 498.627869 331.079681 497.769775 330.351563 C 497.39447 330.037109 496.909607 329.884674 496.421875 329.927765 C 495.934143 329.970825 495.483521 330.205902 495.169128 330.581238 L 495.141602 330.614807 L 495.20575 331.107666 C 496.617004 332.620575 497.578674 334.496857 497.982788 336.52597 C 498.102905 337.407776 498.061157 338.320374 498.166504 339.206085 C 498.188965 340.035461 498.540222 340.821899 499.142944 341.39209 C 499.972778 341.946472 500.947266 341.129089 501.537842 340.131622 C 502.065796 339.312347 502.302673 338.339233 502.210266 337.368958 C 502.078613 336.717896 501.814514 336.10083 501.434326 335.556152 Z"/>
    <path id="path19" fill="#f50004" stroke="none" d="M 509.701965 336.679047 C 509.802429 335.871246 509.736816 335.051453 509.509033 334.269928 C 509.471313 333.212555 509.751648 332.168182 510.313782 331.27182 C 510.872192 330.426178 511.295227 329.498657 511.56781 328.522675 C 511.682617 328.077972 511.661682 327.60907 511.507629 327.176392 C 511.333191 326.784515 510.910645 326.605743 510.668274 326.916077 L 511.186951 327.250153 C 510.486633 327.125183 509.76709 327.160004 509.082092 327.352081 C 508.289001 327.65564 507.693665 328.326752 507.486816 329.150391 C 507.401123 329.783203 507.261169 330.40744 507.06842 331.016235 C 506.758972 331.652252 506.160095 331.863739 505.783752 332.421936 C 505.262329 333.427155 505.282227 334.62735 505.83667 335.614746 C 506.309265 336.40976 507.060608 337.000641 507.944641 337.272522 C 508.578064 337.499847 509.41217 337.511841 509.701965 336.679047 Z"/>
    <path id="path20" fill="#f50004" stroke="none" d="M 524.42511 341.121216 C 524.654053 341.717102 524.960815 342.28009 525.337341 342.795593 C 526.042236 343.505585 527.000183 343.069214 527.855286 342.896698 C 529.436157 342.647034 531.02655 343.284943 531.996704 344.557831 C 531.323669 341.201721 529.063049 338.381348 525.93396 336.993896 C 523.930176 336.300354 521.818665 335.970154 519.698792 336.01889 L 519.336731 336.111664 C 520.259399 338.797546 523.15686 338.737488 524.42511 341.121216 Z"/>
    <path id="path21" fill="#f50004" stroke="none" d="M 462.067078 346.614777 L 462.072388 346.626495 L 462.177734 346.423584 Z"/>
    <path id="path22" fill="#f50004" stroke="none" d="M 459.833496 350.938049 C 459.346375 351.822388 458.92749 352.742615 458.580444 353.690674 C 458.120911 355.226349 457.816711 356.80426 457.672241 358.400696 C 457.558838 359.308411 457.523804 360.467743 458.092529 360.910034 C 458.430359 361.134277 458.88208 361.072876 459.147827 360.766724 C 459.463745 360.432434 459.722229 360.048218 459.912842 359.629608 C 461.03064 357.704529 461.898438 355.644806 462.495361 353.500275 C 463.118286 351.225281 462.969543 348.807922 462.072388 346.626465 C 461.326172 348.063721 460.579865 349.500916 459.833496 350.938049 Z"/>
    <path id="path23" fill="#f50004" stroke="none" d="M 438.286194 235.756409 C 439.011353 236.465149 440.088257 236.675323 441.026672 236.29126 C 441.977478 235.87558 442.849731 235.299438 443.605286 234.588043 C 444.230835 234.125153 444.761536 233.546204 445.168396 232.882843 C 445.621094 232.082123 445.736145 231.134094 445.488159 230.248352 C 445.132935 229.394104 444.361633 228.783997 443.448547 228.634918 C 442.183044 228.259583 440.917542 227.884338 439.652039 227.509125 L 440.567505 226.684021 C 439.62561 226.178528 438.583618 227.116669 437.994934 228.278137 C 437.617371 229.03653 437.354248 229.846649 437.213989 230.682129 C 436.808716 232.448944 437.200806 234.304565 438.286194 235.756409 Z"/>
    <path id="path24" fill="#f50004" stroke="none" d="M 460.628601 228.255859 C 461.368896 229.071869 462.615417 229.173279 463.477905 228.48764 C 464.201294 227.944336 464.659485 227.119019 464.738159 226.217743 C 464.827698 225.222321 464.33551 224.115936 463.632568 224.029968 L 463.793457 223.097961 C 462.43927 222.853394 460.772949 222.804413 460.047302 224.448883 C 459.549194 225.730835 459.77063 227.180969 460.628601 228.255859 Z"/>
    <path id="b456961e-c574-43f5-93e7-af00230a566f-2155" fill="#ffb7b7" stroke="none" d="M 327.246582 328.000244 C 324.61377 325.635071 323.163208 322.225647 323.28479 318.688599 C 323.406372 315.15152 325.087646 311.849762 327.876648 309.670929 L 314.151245 269.441925 L 335.5354 274.996735 L 345.280579 312.345245 C 348.708008 317.386047 347.821899 324.194 343.218323 328.189484 C 338.614685 332.184998 331.749817 332.104218 327.241516 328.001495 Z"/>
    <path id="f9e29824-911d-4b82-8399-58a66d30c3ed-2156" fill="#e6e7e8" stroke="none" d="M 321.115112 303.58667 L 341.862793 294.340576 L 334.892578 224.163574 L 341.384155 153.399811 L 313.682861 138.449921 L 307.813599 145.850342 L 307.813599 146.018341 L 304.70401 235.500916 L 304.720551 235.56839 Z"/>
    <path id="path25" fill="#f50004" stroke="none" d="M 638.953674 512.70929 C 627.222534 507.314606 614.568542 500.958527 600.991821 493.641052 C 530.77179 455.785278 444.423157 396.730774 357.851379 327.356934 C 271.279999 257.983307 194.828812 186.576752 142.581039 126.293854 C 117.129799 96.927673 98.79673 71.778564 88.092262 51.544556 C 76.75843 30.123047 74.472725 14.942749 81.297188 6.426208 C 94.592995 -10.165161 137.892593 4.77887 171.875198 20.237183 L 170.633347 22.96814 C 123.966316 1.739624 93.07093 -3.468445 83.638496 8.302551 C 71.624306 23.294312 93.934761 65.583984 144.848099 124.328857 C 196.981003 184.479401 273.292786 255.751984 359.727295 325.016479 C 446.161804 394.279846 532.350464 453.227539 602.415771 491.000305 C 670.840271 527.889526 716.977173 540.448914 728.99115 525.456482 C 738.965881 513.00885 725.359741 481.658081 690.680298 437.178101 L 693.046143 435.333801 C 718.244629 467.653564 745.342041 509.849731 731.33252 527.332825 C 724.507629 535.849182 709.194336 536.925781 685.81781 530.53241 C 672.492493 526.887634 656.810364 520.920837 638.953674 512.70929 Z"/>
    <path id="path26" fill="#f50004" stroke="none" d="M 189.725296 310.428223 C 157.381668 295.555847 127.823738 280.618805 101.935402 266.000916 C 68.097176 246.893127 42.380394 229.364899 25.499674 213.90506 C 7.627512 197.535675 0.374078 184.006042 3.940836 173.691559 C 10.888178 153.598206 56.691963 153.125275 93.893227 156.266724 L 93.640388 159.256836 C 42.553871 154.9422 11.704996 160.416595 6.775537 174.672668 C 0.497324 192.829407 35.719414 225.164612 103.41053 263.388 C 172.722946 302.526794 268.544525 344.016632 373.226624 380.211426 C 477.907471 416.408875 578.891296 442.971497 657.575073 455.006714 C 734.418335 466.760925 782.091492 463.088928 788.369751 444.93219 C 793.582275 429.857178 770.233459 404.900635 722.625305 374.658142 L 724.233704 372.125854 C 758.826599 394.100159 798.526367 424.738831 791.204834 445.912415 C 787.63855 456.227112 773.576599 462.386047 749.411133 464.219116 C 726.585571 465.950378 695.534851 463.848694 657.121765 457.97229 C 578.263672 445.910706 477.093384 419.301025 372.245972 383.047424 C 306.473236 360.304016 244.16716 335.463654 189.725296 310.428223 Z"/>
    <path id="path27" fill="#e6e6e6" stroke="none" d="M 256.278625 140.265778 C 256.278625 149.921387 248.451187 157.74881 238.795563 157.74881 C 229.139954 157.74881 221.312515 149.921387 221.312515 140.265778 C 221.312515 130.610138 229.139954 122.782715 238.795563 122.782715 C 248.451187 122.782715 256.278625 130.610138 256.278625 140.265778 Z"/>
    <path id="path28" fill="#ff6584" stroke="none" d="M 594.103577 360.436615 C 594.103577 366.347351 589.312012 371.138947 583.401245 371.138947 C 577.49054 371.138947 572.698914 366.347351 572.698914 360.436615 C 572.698914 354.525879 577.49054 349.734253 583.401245 349.734253 C 589.312012 349.734253 594.103577 354.525879 594.103577 360.436615 Z"/>
    <path id="path29" fill="#e6e6e6" stroke="none" d="M 77.459763 447.600647 C 77.459763 457.256256 69.632332 465.08371 59.976711 465.08371 C 50.321087 465.08371 42.49366 457.256256 42.49366 447.600647 C 42.49366 437.945038 50.321087 430.117584 59.976711 430.117584 C 69.632332 430.117584 77.459763 437.945038 77.459763 447.600647 Z"/>
</svg>
